<svg xmlns="http://www.w3.org/2000/svg" xmlns:xlink="http://www.w3.org/1999/xlink" viewBox="0 0 185.85 49.85"><defs><linearGradient id="cbd14cdf-12bd-48c1-a47d-9dae814946c7" y1="30.51" x2="21.72" y2="30.51" gradientTransform="translate(0 1.87)" gradientUnits="userSpaceOnUse"><stop offset="0" stop-color="#ffdd47"/><stop offset="1" stop-color="#ff9b47"/></linearGradient></defs><title>Ресурс 1</title><g id="e79f9ee1-44eb-4542-8428-6979a3d5e995" data-name="Слой 2"><g id="aa6b9a4f-feb8-4711-b83f-4460aaf3edd7" data-name="Слой 1"><g id="4be37a7b-8ec9-4654-b038-8610224450b5" data-name="d8377b3f-73bc-486e-b990-b35abdbbf92b"><g id="1e5b6611-46dc-4add-981a-dd713f5e14fa" data-name="32193c77-6d3e-4588-ae4c-8f1fd2d492cd"><g id="fbd1537b-470c-4987-a374-df19347670ec" data-name="9aa983f1-07c9-49f2-ad80-d0a5b2bd84e7"><g id="643c3140-cb15-400a-8928-07fd7b4d13bc" data-name="1210db6b-cf51-4dec-921d-7f34befa29f4"><path d="M24.28,29.61a6.74,6.74,0,0,1,3-5.25l15.65-9c1.67-1,3-.18,3,1.75v18a6.74,6.74,0,0,1-3,5.25l-15.65,9c-1.67,1-3,.18-3-1.75Z" fill="#eef9ff"/><path d="M0,17.06c0-1.92,1.36-2.71,3-1.75l15.65,9a6.72,6.72,0,0,1,3,5.25V47.69c0,1.92-1.36,2.71-3,1.75L3,40.4a6.73,6.73,0,0,1-3-5.25Z" fill="url(#cbd14cdf-12bd-48c1-a47d-9dae814946c7)"/><path d="M20,.7a6.77,6.77,0,0,1,6,0l15.65,9c1.67,1,1.67,2.54,0,3.51L26,22.3a6.77,6.77,0,0,1-6.07,0l-15.65-9c-1.67-1-1.67-2.54,0-3.51Z" fill="#eef9ff"/><path d="M38.37,24.08a6.94,6.94,0,0,1,3.14-5.43c1.73-1,3.14-.18,3.14,1.81a6.94,6.94,0,0,1-3.14,5.43C39.78,26.88,38.37,26.07,38.37,24.08Z" fill="#28292d"/><path d="M26.15,44.42A6.94,6.94,0,0,1,29.29,39c1.73-1,3.14-.18,3.14,1.81a6.94,6.94,0,0,1-3.14,5.43C27.57,47.23,26.15,46.42,26.15,44.42Z" fill="#28292d"/><path d="M32.43,34.19a6.94,6.94,0,0,1,3.14-5.43c1.73-1,3.14-.18,3.14,1.81A6.94,6.94,0,0,1,35.58,36C33.85,37,32.43,36.18,32.43,34.19Z" fill="#28292d"/><path d="M3.63,21.45l1.69,1v2l-1.69-1Zm0,2.34,1.69,1v2l-1.69-1Zm0,2.34,1.69,1v2l-1.69-1Zm0,2.34,1.69,1v2l-1.69-1Zm0,2.34,1.69,1v1.95l-1.69-1Zm0,2.34,1.69,1v2l-1.69-1Zm2-10.53,1.69,1v2l-1.69-1Zm0,2.34,1.69,1v2l-1.69-1Zm0,2.34,1.69,1v2l-1.69-1Zm0,2.34,1.69,1v2l-1.69-1Zm0,2.34,1.69,1v2l-1.69-1Zm0,2.34,1.69,1v2l-1.69-1Zm0,2.34,1.69,1v2l-1.69-1Zm2,1.16,1.69,1v2l-1.69-1Zm2-8.18,1.69,1v2l-1.69-1Zm0,2.34,1.69,1v2l-1.69-1Zm0,2.34,1.69,1v2l-1.69-1Zm0,2.34,1.69,1v2l-1.69-1Zm2,3.51,1.69,1v2l-1.69-1Zm2-12.87,1.69,1v2l-1.69-1Zm0,2.34,1.69,1v2l-1.69-1Zm0,2.34,1.69,1v2l-1.69-1Zm0,2.34,1.69,1v2l-1.69-1Zm0,2.34,1.69,1v2l-1.69-1Zm0,2.34,1.69,1v2l-1.69-1Zm0,2.34,1.69,1v2l-1.69-1Zm2-12.86,1.69,1v2l-1.69-1Zm0,2.34,1.69,1v2l-1.69-1Zm0,2.34,1.69,1v2l-1.69-1Zm0,2.34,1.69,1v2l-1.69-1Zm0,2.34,1.69,1v2l-1.69-1Zm0,2.34,1.69,1v2l-1.69-1Z" fill="#28292d"/><path d="M23.06,14a5.66,5.66,0,0,1,3,.67,1.88,1.88,0,0,1,1.16,1.71,2.24,2.24,0,0,1-1.3,1.74,6,6,0,0,1-3,.74A5.63,5.63,0,0,1,20,18.19a1.94,1.94,0,0,1-1.2-1.72,2.15,2.15,0,0,1,1.28-1.72A6.14,6.14,0,0,1,23.06,14Z" fill="#28292d"/><path d="M23.06,3.11a5.66,5.66,0,0,1,3,.7,1.88,1.88,0,0,1,1.16,1.71,2.19,2.19,0,0,1-1.3,1.72,6,6,0,0,1-3,.74A5.63,5.63,0,0,1,20,7.31a1.94,1.94,0,0,1-1.2-1.72,2.15,2.15,0,0,1,1.28-1.72A6.14,6.14,0,0,1,23.06,3.11Z" fill="#28292d"/></g></g><path d="M76.5,29.61l2.61-14.27h5.44L79.72,38.1H74l-3-13-3,13H62.33L57.48,15.35h5.45l2.61,14.27,3.13-14.27h4.66Z" fill="#fff"/><path d="M92.53,38.1H87.06V15.35h5.47Z" fill="#fff"/><path d="M115.34,38.1h-5.45L101.83,24V38.1H96.34V15.35h5.48l8,14.16V15.35h5.47Z" fill="#fff"/><path d="M118.81,38.1V15.35h7.33a10.79,10.79,0,0,1,5.42,1.37,9.62,9.62,0,0,1,3.76,3.86,11.66,11.66,0,0,1,1.37,5.59v1a11.72,11.72,0,0,1-1.32,5.6,9.65,9.65,0,0,1-3.72,3.88,10.53,10.53,0,0,1-5.35,1.41Zm5.48-18.52v14.3h1.91a4.27,4.27,0,0,0,3.63-1.68,8.23,8.23,0,0,0,1.27-5v-1a8.16,8.16,0,0,0-1.27-5,4.34,4.34,0,0,0-3.69-1.67Z" fill="#fff"/><path d="M145.34,38.1h-5.47V15.35h5.47Z" fill="#fff"/><path d="M167.56,30.39a8.31,8.31,0,0,1-1.28,4.2A7.73,7.73,0,0,1,163,37.41a11.19,11.19,0,0,1-4.84,1,8.93,8.93,0,0,1-7.06-2.92q-2.58-2.92-2.58-8.25V26.11a13.77,13.77,0,0,1,1.16-5.85A8.81,8.81,0,0,1,153,16.38a9.35,9.35,0,0,1,5.09-1.4,9.81,9.81,0,0,1,6.66,2.18,8.62,8.62,0,0,1,2.86,6h-5.47a4.08,4.08,0,0,0-1-3,4.31,4.31,0,0,0-3-.91,3.28,3.28,0,0,0-3,1.53,9.84,9.84,0,0,0-1,4.89v1.61a10.89,10.89,0,0,0,.91,5.2A3.34,3.34,0,0,0,158.2,34a4.21,4.21,0,0,0,2.89-.89,3.78,3.78,0,0,0,1.06-2.83Z" fill="#fff"/><path d="M184.26,28.44h-8.62v5.44h10.19V38.1H170.15V15.35h15.7v4.23H175.64v4.8h8.63Z" fill="#fff"/></g></g></g></g></svg>